<svg xmlns="http://www.w3.org/2000/svg" viewBox="0 0 100 100" width="100" height="100">
  <!-- Background Circle -->
  <circle cx="50" cy="50" r="45" fill="#3B82F6" />
  
  <!-- Toolkit Icon - Stylized "A" for Agent -->
  <path d="M50 20 L30 75 L40 75 L45 60 L55 60 L60 75 L70 75 L50 20 Z" fill="white" />
  
  <!-- Crossbar of the "A" -->
  <rect x="42" y="50" width="16" height="5" fill="white" />
  
  <!-- Gear representing "Toolkit" -->
  <circle cx="50" cy="75" r="12" fill="#1E40AF" />
  <path d="M50 63 L52 67 L56 67 L58 71 L56 75 L58 79 L56 83 L52 83 L50 87 L48 83 L44 83 L42 79 L44 75 L42 71 L44 67 L48 67 L50 63 Z" fill="#60A5FA" />
  <circle cx="50" cy="75" r="4" fill="white" />
</svg> 