<svg width="487" height="100" viewBox="0 0 487 100" fill="none" xmlns="http://www.w3.org/2000/svg">
<g clip-path="url(#clip0_310_6)">
<circle cx="50" cy="50" r="50" fill="#1678FF" style="fill:#1678FF;fill:color(display-p3 0.0863 0.4706 1.0000);fill-opacity:1;"/>
<path fill-rule="evenodd" clip-rule="evenodd" d="M55.9204 74.5019C55.9784 74.5019 56.0291 74.5408 56.0442 74.5968V74.5968L57.6072 80.2851V80.2851C57.6176 80.3216 57.6113 80.3608 57.5902 80.3923L57.106 81.1131C56.7336 81.6675 56.1096 82 55.4418 82H43.8916C43.2237 82 42.5997 81.6674 42.2273 81.1131L41.7432 80.3923C41.722 80.3608 41.7158 80.3216 41.7261 80.2851V80.2851L43.2892 74.5968V74.5968C43.3042 74.5408 43.3549 74.5019 43.4129 74.5019H55.9204ZM47.0982 74.7605C44.9807 74.7605 43.1243 76.1756 42.5634 78.2175L42.206 79.5188C42.0706 80.0117 42.1565 80.5392 42.4414 80.9636V80.9636C42.7678 81.4498 43.3148 81.7414 43.9004 81.7414H55.433C56.0185 81.7414 56.5656 81.4498 56.8919 80.9636V80.9636C57.1768 80.5392 57.2628 80.0117 57.1274 79.5188L56.7699 78.2175C56.209 76.1756 54.3527 74.7605 52.2352 74.7605H47.0982Z" fill="white" style="fill:white;fill-opacity:1;"/>
<path fill-rule="evenodd" clip-rule="evenodd" d="M50.1879 14C50.2223 14 50.2555 14.0134 50.2803 14.0374V14.0374L51.3223 15.0716L51.3234 15.0727C51.3348 15.0846 51.3438 15.0987 51.3498 15.114V15.114L59.6862 35.2813L59.6869 35.2828C59.6892 35.2879 59.691 35.2931 59.6924 35.2985V35.2985L64.5295 54.0243C64.7666 54.9421 65.2597 55.7736 65.9513 56.4219L74.2449 64.1954C74.2682 64.2173 74.2825 64.247 74.2852 64.2789V64.2789L75.3272 77.2066V77.2066C75.3309 77.2591 75.3022 77.3087 75.255 77.3319V77.3319L73.1709 78.3661V78.3661C73.1316 78.3862 73.0846 78.3846 73.0467 78.3621V78.3621L62.7861 72.3448C62.019 71.8949 61.1459 71.6578 60.2567 71.6578H39.0766C38.1874 71.6578 37.3143 71.8949 36.5473 72.3448L26.2866 78.3621V78.3621C26.2487 78.3846 26.2017 78.3862 26.1625 78.3661V78.3661L24.0784 77.3319V77.3319C24.0311 77.3087 24.0024 77.2591 24.0061 77.2066V77.2066L25.0482 64.2789V64.2789C25.0508 64.247 25.0651 64.2173 25.0885 64.1954L33.3821 56.4219C34.0737 55.7736 34.5668 54.9421 34.8038 54.0243L39.641 35.2985V35.2985C39.6423 35.2931 39.6441 35.2879 39.6464 35.2828L39.6471 35.2813L47.9835 15.114V15.114C47.9896 15.0987 47.9985 15.0846 48.0099 15.0727L48.011 15.0716L49.053 14.0374V14.0374C49.0778 14.0134 49.111 14 49.1455 14H50.1879ZM49.6667 14.2586C49.3681 14.2586 49.0817 14.3766 48.8698 14.5869L48.5374 14.9167C48.3236 15.1289 48.1542 15.3816 48.0391 15.66L39.8923 35.3692L34.6831 55.5304V55.5304C34.6771 55.554 34.6644 55.5756 34.6464 55.592V55.592L26.7148 63.0267C25.808 63.8767 25.2503 65.0339 25.1503 66.2727L24.3707 75.9383C24.3121 76.664 24.7015 77.3522 25.3536 77.6759V77.6759C25.8914 77.9427 26.5274 77.9205 27.0452 77.6169L37.6169 71.4174V71.4174C37.6369 71.4055 37.6597 71.3992 37.683 71.3992H61.6504C61.6736 71.3992 61.6964 71.4055 61.7164 71.4174V71.4174L72.2881 77.6169C72.8059 77.9205 73.442 77.9427 73.9797 77.6759V77.6759C74.6319 77.3522 75.0212 76.664 74.9627 75.9383L74.183 66.2727C74.0831 65.0339 73.5254 63.8767 72.6186 63.0267L64.6869 55.592V55.592C64.669 55.5756 64.6562 55.554 64.6502 55.5304V55.5304L59.441 35.3692L51.2942 15.66C51.1791 15.3816 51.0097 15.1289 50.7959 14.9167L50.4635 14.5869C50.2516 14.3766 49.9652 14.2586 49.6667 14.2586V14.2586Z" fill="white" style="fill:white;fill-opacity:1;"/>
<path d="M49.6667 14.2586C49.3681 14.2586 49.0817 14.3766 48.8698 14.5869L48.5374 14.9167C48.3236 15.1289 48.1542 15.3816 48.0391 15.66L39.8923 35.3692L34.6831 55.5304V55.5304C34.6771 55.554 34.6644 55.5756 34.6464 55.592V55.592L26.7148 63.0267C25.808 63.8767 25.2503 65.0339 25.1503 66.2727L24.3707 75.9383C24.3121 76.664 24.7015 77.3522 25.3536 77.6759V77.6759C25.8914 77.9427 26.5274 77.9205 27.0452 77.6169L37.6169 71.4174V71.4174C37.6369 71.4055 37.6597 71.3992 37.683 71.3992H61.6504C61.6736 71.3992 61.6964 71.4055 61.7164 71.4174V71.4174L72.2881 77.6169C72.8059 77.9205 73.442 77.9427 73.9797 77.6759V77.6759C74.6319 77.3522 75.0212 76.664 74.9627 75.9383L74.183 66.2727C74.0831 65.0339 73.5254 63.8767 72.6186 63.0267L64.6869 55.592V55.592C64.669 55.5756 64.6562 55.554 64.6502 55.5304V55.5304L59.441 35.3692L51.2942 15.66C51.1791 15.3816 51.0097 15.1289 50.7959 14.9167L50.4635 14.5869C50.2516 14.3766 49.9652 14.2586 49.6667 14.2586V14.2586Z" fill="white" style="fill:white;fill-opacity:1;"/>
<path d="M47.0982 74.7605C44.9807 74.7605 43.1243 76.1756 42.5634 78.2175L42.206 79.5188C42.0706 80.0117 42.1565 80.5392 42.4414 80.9636V80.9636C42.7678 81.4498 43.3148 81.7414 43.9004 81.7414H55.433C56.0185 81.7414 56.5656 81.4498 56.8919 80.9636V80.9636C57.1768 80.5392 57.2628 80.0117 57.1274 79.5188L56.7699 78.2175C56.209 76.1756 54.3527 74.7605 52.2352 74.7605H47.0982Z" fill="white" style="fill:white;fill-opacity:1;"/>
<path d="M112.051 71.5L127.704 27.8883H135.666L151.32 71.5H143.96L140.07 60.5518H123.361L119.44 71.5H112.051ZM125.11 54.0372H138.23L131.685 35.0061L125.11 54.0372ZM170.508 81.8148C165.26 81.8148 161.228 81.1111 158.413 79.7036C155.598 78.2961 154.191 76.3658 154.191 73.9128C154.191 72.8069 154.462 71.882 155.005 71.1381C155.548 70.3941 156.191 69.7809 156.935 69.2983C157.679 68.8157 158.363 68.4438 158.986 68.1824C159.61 67.921 160.012 67.73 160.193 67.6093C159.851 67.4083 159.399 67.1469 158.836 66.8252C158.273 66.5035 157.76 66.0611 157.297 65.4981C156.855 64.9351 156.634 64.2012 156.634 63.2964C156.634 62.2509 157.126 61.2857 158.112 60.401C159.117 59.5163 160.615 58.883 162.606 58.5009C160.655 57.5559 159.157 56.2791 158.112 54.6706C157.066 53.062 156.543 51.3932 156.543 49.664C156.543 47.6131 157.137 45.8538 158.323 44.386C159.529 42.9182 161.198 41.7922 163.329 41.008C165.461 40.2238 167.944 39.8318 170.779 39.8318C172.85 39.8318 174.569 40.063 175.936 40.5254C177.324 40.9879 178.611 41.6112 179.797 42.3954C180.199 42.2345 180.762 42.0134 181.486 41.7319C182.21 41.4303 183.004 41.1085 183.869 40.7667C184.733 40.4048 185.568 40.063 186.372 39.7413C187.176 39.3995 187.85 39.118 188.393 38.8968L188.362 44.959L182.964 45.9241C183.225 46.5072 183.426 47.1406 183.567 47.8242C183.728 48.5079 183.808 49.1111 183.808 49.6338C183.808 51.4434 183.295 53.1224 182.27 54.6706C181.265 56.1987 179.747 57.4252 177.716 58.3501C175.705 59.2751 173.192 59.7375 170.176 59.7375C169.874 59.7375 169.462 59.7275 168.939 59.7074C168.416 59.6872 167.994 59.6671 167.672 59.647C166.044 59.7074 164.928 59.8984 164.325 60.2201C163.721 60.5418 163.42 60.8937 163.42 61.2757C163.42 61.8186 163.872 62.1805 164.777 62.3615C165.682 62.5424 167.13 62.7033 169.12 62.844C169.824 62.8842 170.749 62.9345 171.895 62.9948C173.041 63.0551 174.318 63.1356 175.725 63.2361C179.284 63.4573 181.978 64.352 183.808 65.9204C185.638 67.4686 186.553 69.4793 186.553 71.9524C186.553 74.8277 185.226 77.1902 182.572 79.0401C179.918 80.8899 175.896 81.8148 170.508 81.8148ZM171.744 77.5019C174.378 77.5019 176.328 77.14 177.595 76.4161C178.862 75.6923 179.495 74.6266 179.495 73.2191C179.495 72.1334 179.063 71.2487 178.198 70.565C177.334 69.8814 176.047 69.4793 174.338 69.3586L166.466 68.8761C165.601 68.8157 164.777 68.9766 163.993 69.3586C163.229 69.7205 162.606 70.2333 162.123 70.8968C161.64 71.5402 161.399 72.254 161.399 73.0382C161.399 74.506 162.234 75.6118 163.902 76.3558C165.591 77.1199 168.205 77.5019 171.744 77.5019ZM170.417 55.4246C172.327 55.4246 173.875 54.942 175.062 53.9769C176.248 52.9917 176.841 51.6043 176.841 49.8148C176.841 47.965 176.248 46.5273 175.062 45.5019C173.875 44.4563 172.327 43.9336 170.417 43.9336C168.467 43.9336 166.888 44.4563 165.682 45.5019C164.496 46.5474 163.902 47.9851 163.902 49.8148C163.902 51.544 164.475 52.9112 165.622 53.9166C166.768 54.9219 168.366 55.4246 170.417 55.4246ZM207.293 72.1032C204.297 72.1032 201.653 71.4698 199.361 70.2031C197.088 68.9163 195.309 67.0866 194.022 64.7139C192.755 62.3413 192.122 59.5163 192.122 56.2389C192.122 53.0419 192.695 50.2069 193.841 47.7337C195.007 45.2405 196.686 43.2801 198.878 41.8525C201.09 40.4249 203.754 39.7111 206.87 39.7111C209.947 39.7111 212.53 40.3646 214.622 41.6715C216.713 42.9785 218.301 44.8082 219.387 47.1607C220.473 49.4931 221.016 52.2276 221.016 55.3643V57.5961H199.451C199.431 59.3655 199.712 60.9339 200.295 62.3011C200.879 63.6684 201.743 64.7441 202.889 65.5283C204.035 66.2923 205.453 66.6744 207.142 66.6744C208.871 66.6744 210.369 66.2923 211.636 65.5283C212.923 64.7441 213.777 63.5578 214.199 61.9694H220.895C220.533 64.1409 219.668 65.9807 218.301 67.4887C216.954 68.9967 215.305 70.1428 213.355 70.927C211.425 71.7111 209.404 72.1032 207.293 72.1032ZM199.421 53.0419H214.079C214.079 51.5339 213.807 50.1767 213.264 48.9703C212.742 47.7438 211.947 46.7787 210.882 46.0749C209.816 45.3511 208.469 44.9892 206.84 44.9892C205.232 44.9892 203.874 45.3812 202.769 46.1654C201.663 46.9496 200.828 47.965 200.265 49.2116C199.702 50.4381 199.421 51.7149 199.421 53.0419ZM228.029 71.5V40.3143H235.207V44.778C235.689 43.9738 236.343 43.1997 237.167 42.4557C238.012 41.7118 239.047 41.1085 240.274 40.6461C241.5 40.1836 242.938 39.9524 244.587 39.9524C246.517 39.9524 248.306 40.3344 249.955 41.0985C251.624 41.8626 252.961 43.0589 253.967 44.6876C254.992 46.3162 255.505 48.4174 255.505 50.991V71.5H248.146V51.8657C248.146 49.8148 247.583 48.2967 246.457 47.3115C245.331 46.3062 243.913 45.8035 242.204 45.8035C241.038 45.8035 239.932 46.0046 238.886 46.4067C237.841 46.7887 236.986 47.3819 236.323 48.1861C235.679 48.9703 235.358 49.9555 235.358 51.1418V71.5H228.029ZM274.652 71.7413C272.179 71.7413 270.259 71.4196 268.892 70.7762C267.544 70.1126 266.609 69.1777 266.087 67.9713C265.564 66.7648 265.303 65.3272 265.303 63.6583V45.5019H260.236V40.3143H265.514L267.353 31.0551H272.631V40.2842H279.598V45.5019H272.631L272.662 63.3869C272.662 64.3118 272.762 64.9954 272.963 65.4378C273.184 65.86 273.526 66.1415 273.989 66.2823C274.471 66.4029 275.105 66.4632 275.889 66.4632H279.749V71.1079C279.327 71.2688 278.704 71.4095 277.879 71.5302C277.075 71.6709 275.999 71.7413 274.652 71.7413Z" fill="black" style="fill:black;fill-opacity:1;"/>
<path d="M311.912 71.5V33.0156H297.827V27.8883H330.822V33.0156H317.522V71.5H311.912ZM345.173 72.1032C342.298 72.1032 339.785 71.4899 337.633 70.2634C335.502 69.0168 333.843 67.1971 332.657 64.8044C331.471 62.4117 330.877 59.4862 330.877 56.0278C330.877 52.7705 331.43 49.9153 332.536 47.4623C333.642 45.0093 335.261 43.1092 337.392 41.762C339.523 40.3948 342.127 39.7111 345.204 39.7111C348.079 39.7111 350.572 40.3445 352.683 41.6112C354.795 42.8578 356.433 44.6976 357.599 47.1305C358.786 49.5635 359.379 52.5292 359.379 56.0278C359.379 59.2047 358.836 61.9995 357.75 64.4123C356.664 66.8252 355.066 68.7152 352.955 70.0825C350.864 71.4296 348.27 72.1032 345.173 72.1032ZM345.204 67.6998C347.053 67.6998 348.622 67.2273 349.909 66.2823C351.195 65.3373 352.171 63.9801 352.834 62.2106C353.518 60.4413 353.86 58.3401 353.86 55.9072C353.86 53.6753 353.558 51.6747 352.955 49.9053C352.372 48.1158 351.447 46.6982 350.18 45.6527C348.913 44.6071 347.254 44.0844 345.204 44.0844C343.314 44.0844 341.715 44.5569 340.408 45.5019C339.101 46.4268 338.106 47.774 337.422 49.5434C336.759 51.3128 336.427 53.434 336.427 55.9072C336.427 58.0988 336.719 60.0894 337.302 61.8789C337.905 63.6684 338.85 65.0859 340.137 66.1315C341.444 67.177 343.133 67.6998 345.204 67.6998ZM379.28 72.1032C376.405 72.1032 373.892 71.4899 371.74 70.2634C369.609 69.0168 367.95 67.1971 366.764 64.8044C365.578 62.4117 364.984 59.4862 364.984 56.0278C364.984 52.7705 365.537 49.9153 366.643 47.4623C367.749 45.0093 369.368 43.1092 371.499 41.762C373.63 40.3948 376.234 39.7111 379.311 39.7111C382.186 39.7111 384.679 40.3445 386.79 41.6112C388.901 42.8578 390.54 44.6976 391.706 47.1305C392.893 49.5635 393.486 52.5292 393.486 56.0278C393.486 59.2047 392.943 61.9995 391.857 64.4123C390.771 66.8252 389.173 68.7152 387.062 70.0825C384.971 71.4296 382.377 72.1032 379.28 72.1032ZM379.311 67.6998C381.16 67.6998 382.729 67.2273 384.016 66.2823C385.302 65.3373 386.278 63.9801 386.941 62.2106C387.625 60.4413 387.967 58.3401 387.967 55.9072C387.967 53.6753 387.665 51.6747 387.062 49.9053C386.479 48.1158 385.554 46.6982 384.287 45.6527C383.02 44.6071 381.361 44.0844 379.311 44.0844C377.421 44.0844 375.822 44.5569 374.515 45.5019C373.208 46.4268 372.213 47.774 371.529 49.5434C370.866 51.3128 370.534 53.434 370.534 55.9072C370.534 58.0988 370.825 60.0894 371.409 61.8789C372.012 63.6684 372.957 65.0859 374.244 66.1315C375.551 67.177 377.24 67.6998 379.311 67.6998ZM408.773 71.8921C407.084 71.8921 405.717 71.6609 404.671 71.1984C403.646 70.7359 402.851 70.1126 402.288 69.3285C401.746 68.5443 401.374 67.6495 401.172 66.6442C400.991 65.6188 400.901 64.5631 400.901 63.4774V26.6819H406.39V62.9345C406.39 64.5028 406.692 65.6791 407.295 66.4632C407.918 67.2474 408.783 67.6797 409.889 67.7601L411.578 67.7903V71.4095C411.115 71.5503 410.633 71.6609 410.13 71.7413C409.627 71.8418 409.175 71.8921 408.773 71.8921ZM418.868 71.5V26.6819H424.417V55.9072L439.075 40.3143H445.469L434.219 52.1975L446.253 71.5H440.342L430.57 55.8468L424.417 62.2106V71.5H418.868ZM452.89 71.5V40.3143H458.288V71.5H452.89ZM452.739 33.7092V27.9185H458.439V33.7092H452.739ZM479.073 71.6508C476.922 71.6508 475.253 71.3593 474.066 70.7762C472.88 70.1931 472.046 69.3285 471.563 68.1824C471.101 67.0363 470.869 65.6288 470.869 63.9599V44.386H465.803V40.3143H471.02L472.377 31.2361H476.479V40.2842H483.507V44.386H476.479V63.779C476.479 64.8849 476.59 65.6992 476.811 66.222C477.052 66.7246 477.444 67.0463 477.987 67.1871C478.53 67.3278 479.294 67.3982 480.279 67.3982H483.688V71.1381C483.305 71.2788 482.722 71.3995 481.938 71.5C481.174 71.6005 480.219 71.6508 479.073 71.6508Z" fill="black" fill-opacity="0.5" style="fill:black;fill-opacity:0.5;"/>
</g>
<defs>
<clipPath id="clip0_310_6">
<rect width="487" height="100" fill="white" style="fill:white;fill-opacity:1;"/>
</clipPath>
</defs>
</svg>
